# xmcd
#
# Track frame offsets: 
#        150
#        26003
#        44309
#        64298
#        86745
#        105637
#        127975
#
# Disc length: 1988 seconds
#
# Revision: 0
# Processed by: cddbd v1.5.2PL0 Copyright (c) Steve Scherf et al.
# Submitted via: ExactAudioCopy v1.0b4
#
DISCID=5907c207
DTITLE=あきの, ハルドリ - チャームポイント
DYEAR=2011
DGENRE=Indie
TTITLE0=アゲハ
TTITLE1=ベイベー、今夜は
TTITLE2=リメンバーミー
TTITLE3=そばにいてbaby
TTITLE4=銀の矢
TTITLE5=チャームポイント
TTITLE6=ヒーロー
EXTD=
EXTT0=
EXTT1=
EXTT2=
EXTT3=
EXTT4=
EXTT5=
EXTT6=
PLAYORDER=
